<svg xmlns="http://www.w3.org/2000/svg" viewBox="0 0 640 420" role="img" aria-label="Anxious person using a laptop">
  <rect width="640" height="420" fill="#fff7f5"/>
  <path d="M118 90l36 24M504 98l-34 24M188 58l16 39M444 58l-18 42" stroke="#e2644f" stroke-width="9" stroke-linecap="round"/>
  <circle cx="320" cy="138" r="50" fill="#e2644f"/>
  <circle cx="302" cy="132" r="5" fill="#111827"/>
  <circle cx="338" cy="132" r="5" fill="#111827"/>
  <path d="M301 163c13-10 26-10 38 0" fill="none" stroke="#111827" stroke-width="6" stroke-linecap="round"/>
  <path d="M271 143c-5 9-8 17-8 23 0 8 6 14 14 14s14-6 14-14c0-6-4-14-20-23z" fill="#7dd3fc"/>
  <path d="M374 122c-4 8-7 14-7 19 0 7 5 12 12 12s12-5 12-12c0-5-4-12-17-19z" fill="#7dd3fc"/>
  <path d="M252 204c26-28 110-28 136 0" fill="#e2644f"/>

  <rect x="174" y="204" width="292" height="148" rx="18" fill="#f2f4f7" stroke="#aab4c2" stroke-width="5"/>
  <rect x="188" y="218" width="264" height="116" rx="12" fill="#e8edf3"/>
  <path d="M320 258c9 0 17 8 17 20 0 13-8 22-17 22s-17-9-17-22c0-12 8-20 17-20z" fill="#a9b2bf"/>
  <path d="M326 253c9-10 18-12 27-7-6 10-15 13-27 7z" fill="#a9b2bf"/>
  <path d="M305 270c-6-2-12 1-15 6" fill="none" stroke="#a9b2bf" stroke-width="4" stroke-linecap="round"/>
  <path d="M335 270c6-2 12 1 15 6" fill="none" stroke="#a9b2bf" stroke-width="4" stroke-linecap="round"/>
  <rect x="142" y="346" width="356" height="26" rx="9" fill="#c4ccd8"/>
  <rect x="236" y="351" width="168" height="7" rx="3.5" fill="#eef4ff"/>

  <rect x="414" y="74" width="96" height="42" rx="21" fill="#ffffff" stroke="#e2644f" stroke-width="4"/>
  <text x="462" y="103" text-anchor="middle" font-family="Arial, sans-serif" font-size="22" font-weight="800" fill="#e2644f">FOMO</text>
  <text x="320" y="398" text-anchor="middle" font-family="Arial, sans-serif" font-size="23" font-weight="700" fill="#111827">AI news overload</text>
</svg>
